<svg width="193" height="193" viewBox="0 0 193 193" fill="none" xmlns="http://www.w3.org/2000/svg">
<rect x="0.666992" y="0.856445" width="192" height="192" rx="8" fill="#CED1D7"/>
<mask id="mask0" mask-type="alpha" maskUnits="userSpaceOnUse" x="0" y="0" width="193" height="193">
<rect x="0.666992" y="0.856445" width="192" height="192" rx="8" fill="#38539A"/>
</mask>
<g mask="url(#mask0)">
<g clip-path="url(#clip0)">
<path d="M177.256 167.073C154.661 154.265 127.17 148.765 124.383 140.553C121.597 132.341 120.994 124.28 123.555 118.177C126.116 112.075 129.128 112.828 130.635 106.048C130.635 106.048 134.401 106.801 137.413 102.281C140.426 97.7602 141.179 90.2263 141.179 86.4593C141.179 82.6923 135.907 80.4322 135.907 80.4322C135.907 80.4322 141.179 66.1177 138.167 51.8032C135.154 37.4887 125.363 19.4072 92.9763 20.914V21.14C66.5401 22.5715 58.1046 38.8448 55.3179 52.0292C52.3052 66.3437 57.5774 80.6582 57.5774 80.6582C57.5774 80.6582 52.3052 82.9184 52.3052 86.6853C52.3052 90.4523 53.0584 97.9863 56.0711 102.507C59.0837 107.027 62.8496 106.274 62.8496 106.274C64.3559 113.054 67.3686 112.301 69.9294 118.403C72.4901 124.506 71.8876 132.642 69.1009 140.779C66.3142 148.916 38.8235 154.491 16.2284 167.299C-6.36667 180.106 -4.10716 192.914 -4.10716 192.914L197.742 192.763C197.592 192.688 199.851 179.88 177.256 167.073Z" fill="#797979"/>
</g>
</g>
<defs>
<clipPath id="clip0">
<rect width="202" height="172" fill="white" transform="translate(-4.33301 20.8389)"/>
</clipPath>
</defs>
</svg>
