<svg width="85" height="84" viewBox="0 0 85 84" fill="none" xmlns="http://www.w3.org/2000/svg">
<g opacity="0.4" clip-path="url(#clip0)">
<mask id="path-1-inside-1" fill="white">
<path d="M69.6415 0.322754H62.091V2.2308H69.6415V0.322754ZM54.5404 0.322754H46.9899V2.2308H54.5404V0.322754ZM39.4393 0.322754H33.7764V2.2308H39.4393V0.322754ZM35.664 9.86298H33.7764V17.4952H35.664V9.86298ZM35.664 25.1273H33.7764V32.7595H35.664V25.1273ZM35.664 40.3917H33.7764V48.0239H35.664V40.3917ZM45.1022 49.9319H37.5516V51.84H45.1022V49.9319ZM60.2033 49.9319H52.6528V51.84H60.2033V49.9319ZM75.3045 49.9319H67.7539V51.84H75.3045V49.9319ZM84.7427 46.1159H82.855V49.9319V51.84H84.7427V46.1159ZM84.7427 30.8515H82.855V38.4837H84.7427V30.8515ZM84.7427 15.5871H82.855V23.2193H84.7427V15.5871ZM84.7427 0.322754H77.1921V2.2308H82.855V7.95494H84.7427V0.322754Z"/>
</mask>
<path d="M69.6415 0.322754H62.091V2.2308H69.6415V0.322754ZM54.5404 0.322754H46.9899V2.2308H54.5404V0.322754ZM39.4393 0.322754H33.7764V2.2308H39.4393V0.322754ZM35.664 9.86298H33.7764V17.4952H35.664V9.86298ZM35.664 25.1273H33.7764V32.7595H35.664V25.1273ZM35.664 40.3917H33.7764V48.0239H35.664V40.3917ZM45.1022 49.9319H37.5516V51.84H45.1022V49.9319ZM60.2033 49.9319H52.6528V51.84H60.2033V49.9319ZM75.3045 49.9319H67.7539V51.84H75.3045V49.9319ZM84.7427 46.1159H82.855V49.9319V51.84H84.7427V46.1159ZM84.7427 30.8515H82.855V38.4837H84.7427V30.8515ZM84.7427 15.5871H82.855V23.2193H84.7427V15.5871ZM84.7427 0.322754H77.1921V2.2308H82.855V7.95494H84.7427V0.322754Z" fill="black"/>
<path d="M69.6415 0.322754H72.6415V-2.67725H69.6415V0.322754ZM62.091 0.322754V-2.67725H59.091V0.322754H62.091ZM62.091 2.2308H59.091V5.2308H62.091V2.2308ZM69.6415 2.2308V5.2308H72.6415V2.2308H69.6415ZM54.5404 0.322754H57.5404V-2.67725H54.5404V0.322754ZM46.9899 0.322754V-2.67725H43.9899V0.322754H46.9899ZM46.9899 2.2308H43.9899V5.2308H46.9899V2.2308ZM54.5404 2.2308V5.2308H57.5404V2.2308H54.5404ZM39.4393 0.322754H42.4393V-2.67725H39.4393V0.322754ZM33.7764 0.322754V-2.67725H30.7764V0.322754H33.7764ZM33.7764 2.2308H30.7764V5.2308H33.7764V2.2308ZM39.4393 2.2308V5.2308H42.4393V2.2308H39.4393ZM35.664 9.86298H38.664V6.86298H35.664V9.86298ZM33.7764 9.86298V6.86298H30.7764V9.86298H33.7764ZM33.7764 17.4952H30.7764V20.4952H33.7764V17.4952ZM35.664 17.4952V20.4952H38.664V17.4952H35.664ZM35.664 25.1273H38.664V22.1273H35.664V25.1273ZM33.7764 25.1273V22.1273H30.7764V25.1273H33.7764ZM33.7764 32.7595H30.7764V35.7595H33.7764V32.7595ZM35.664 32.7595V35.7595H38.664V32.7595H35.664ZM35.664 40.3917H38.664V37.3917H35.664V40.3917ZM33.7764 40.3917V37.3917H30.7764V40.3917H33.7764ZM33.7764 48.0239H30.7764V51.0239H33.7764V48.0239ZM35.664 48.0239V51.0239H38.664V48.0239H35.664ZM45.1022 49.9319H48.1022V46.9319H45.1022V49.9319ZM37.5516 49.9319V46.9319H34.5516V49.9319H37.5516ZM37.5516 51.84H34.5516V54.84H37.5516V51.84ZM45.1022 51.84V54.84H48.1022V51.84H45.1022ZM60.2033 49.9319H63.2033V46.9319H60.2033V49.9319ZM52.6528 49.9319V46.9319H49.6528V49.9319H52.6528ZM52.6528 51.84H49.6528V54.84H52.6528V51.84ZM60.2033 51.84V54.84H63.2033V51.84H60.2033ZM75.3045 49.9319H78.3045V46.9319H75.3045V49.9319ZM67.7539 49.9319V46.9319H64.7539V49.9319H67.7539ZM67.7539 51.84H64.7539V54.84H67.7539V51.84ZM75.3045 51.84V54.84H78.3045V51.84H75.3045ZM84.7427 46.1159H87.7427V43.1159H84.7427V46.1159ZM82.855 46.1159V43.1159H79.855V46.1159H82.855ZM82.855 51.84H79.855V54.84H82.855V51.84ZM84.7427 51.84V54.84H87.7427V51.84H84.7427ZM84.7427 30.8515H87.7427V27.8515H84.7427V30.8515ZM82.855 30.8515V27.8515H79.855V30.8515H82.855ZM82.855 38.4837H79.855V41.4837H82.855V38.4837ZM84.7427 38.4837V41.4837H87.7427V38.4837H84.7427ZM84.7427 15.5871H87.7427V12.5871H84.7427V15.5871ZM82.855 15.5871V12.5871H79.855V15.5871H82.855ZM82.855 23.2193H79.855V26.2193H82.855V23.2193ZM84.7427 23.2193V26.2193H87.7427V23.2193H84.7427ZM84.7427 0.322754H87.7427V-2.67725H84.7427V0.322754ZM77.1921 0.322754V-2.67725H74.1921V0.322754H77.1921ZM77.1921 2.2308H74.1921V5.2308H77.1921V2.2308ZM82.855 2.2308H85.855V-0.7692H82.855V2.2308ZM82.855 7.95494H79.855V10.9549H82.855V7.95494ZM84.7427 7.95494V10.9549H87.7427V7.95494H84.7427ZM69.6415 -2.67725H62.091V3.32275H69.6415V-2.67725ZM59.091 0.322754V2.2308H65.091V0.322754H59.091ZM62.091 5.2308H69.6415V-0.7692H62.091V5.2308ZM72.6415 2.2308V0.322754H66.6415V2.2308H72.6415ZM54.5404 -2.67725H46.9899V3.32275H54.5404V-2.67725ZM43.9899 0.322754V2.2308H49.9899V0.322754H43.9899ZM46.9899 5.2308H54.5404V-0.7692H46.9899V5.2308ZM57.5404 2.2308V0.322754H51.5404V2.2308H57.5404ZM39.4393 -2.67725H33.7764V3.32275H39.4393V-2.67725ZM30.7764 0.322754V2.2308H36.7764V0.322754H30.7764ZM33.7764 5.2308H39.4393V-0.7692H33.7764V5.2308ZM42.4393 2.2308V0.322754H36.4393V2.2308H42.4393ZM35.664 6.86298H33.7764V12.863H35.664V6.86298ZM30.7764 9.86298V17.4952H36.7764V9.86298H30.7764ZM33.7764 20.4952H35.664V14.4952H33.7764V20.4952ZM38.664 17.4952V9.86298H32.664V17.4952H38.664ZM35.664 22.1273H33.7764V28.1273H35.664V22.1273ZM30.7764 25.1273V32.7595H36.7764V25.1273H30.7764ZM33.7764 35.7595H35.664V29.7595H33.7764V35.7595ZM38.664 32.7595V25.1273H32.664V32.7595H38.664ZM35.664 37.3917H33.7764V43.3917H35.664V37.3917ZM30.7764 40.3917V48.0239H36.7764V40.3917H30.7764ZM33.7764 51.0239H35.664V45.0239H33.7764V51.0239ZM38.664 48.0239V40.3917H32.664V48.0239H38.664ZM45.1022 46.9319H37.5516V52.9319H45.1022V46.9319ZM34.5516 49.9319V51.84H40.5516V49.9319H34.5516ZM37.5516 54.84H45.1022V48.84H37.5516V54.84ZM48.1022 51.84V49.9319H42.1022V51.84H48.1022ZM60.2033 46.9319H52.6528V52.9319H60.2033V46.9319ZM49.6528 49.9319V51.84H55.6528V49.9319H49.6528ZM52.6528 54.84H60.2033V48.84H52.6528V54.84ZM63.2033 51.84V49.9319H57.2033V51.84H63.2033ZM75.3045 46.9319H67.7539V52.9319H75.3045V46.9319ZM64.7539 49.9319V51.84H70.7539V49.9319H64.7539ZM67.7539 54.84H75.3045V48.84H67.7539V54.84ZM78.3045 51.84V49.9319H72.3045V51.84H78.3045ZM84.7427 43.1159H82.855V49.1159H84.7427V43.1159ZM79.855 46.1159V49.9319H85.855V46.1159H79.855ZM79.855 49.9319V51.84H85.855V49.9319H79.855ZM82.855 54.84H84.7427V48.84H82.855V54.84ZM87.7427 51.84V46.1159H81.7427V51.84H87.7427ZM84.7427 27.8515H82.855V33.8515H84.7427V27.8515ZM79.855 30.8515V38.4837H85.855V30.8515H79.855ZM82.855 41.4837H84.7427V35.4837H82.855V41.4837ZM87.7427 38.4837V30.8515H81.7427V38.4837H87.7427ZM84.7427 12.5871H82.855V18.5871H84.7427V12.5871ZM79.855 15.5871V23.2193H85.855V15.5871H79.855ZM82.855 26.2193H84.7427V20.2193H82.855V26.2193ZM87.7427 23.2193V15.5871H81.7427V23.2193H87.7427ZM84.7427 -2.67725H77.1921V3.32275H84.7427V-2.67725ZM74.1921 0.322754V2.2308H80.1921V0.322754H74.1921ZM77.1921 5.2308H82.855V-0.7692H77.1921V5.2308ZM79.855 2.2308V7.95494H85.855V2.2308H79.855ZM82.855 10.9549H84.7427V4.95494H82.855V10.9549ZM87.7427 7.95494V0.322754H81.7427V7.95494H87.7427Z" fill="black" mask="url(#path-1-inside-1)"/>
<path d="M41.327 30.8516H1.68652V82.3688H52.6528V44.2079" fill="white"/>
<path d="M41.327 30.8516H1.68652V82.3688H52.6528V44.2079" stroke="black" stroke-width="3" stroke-miterlimit="10"/>
<path d="M63.035 22.4561L34.9092 51.0767" stroke="black" stroke-width="3" stroke-miterlimit="10" stroke-linecap="round" stroke-linejoin="round"/>
<path d="M44.5361 23.6008L64.1676 21.502L61.9024 41.1548" stroke="black" stroke-width="3" stroke-miterlimit="10" stroke-linecap="round" stroke-linejoin="round"/>
</g>
<defs>
<clipPath id="clip0">
<rect width="84" height="83" fill="white" transform="translate(0.742676 0.322754)"/>
</clipPath>
</defs>
</svg>
